<?xml version="1.0" standalone="no"?>
<!DOCTYPE svg PUBLIC "-//W3C//DTD SVG 20010904//EN"
 "http://www.w3.org/TR/2001/REC-SVG-20010904/DTD/svg10.dtd">
<svg version="1.0" xmlns="http://www.w3.org/2000/svg"
 width="512.000000pt" height="512.000000pt" viewBox="0 0 512.000000 512.000000"
 preserveAspectRatio="xMidYMid meet">
<metadata>
Created by potrace 1.16, written by Peter Selinger 2001-2019
</metadata>
<g transform="translate(0.000000,512.000000) scale(0.100000,-0.100000)"
fill="#000000" stroke="none">
<path d="M1565 4634 c-296 -24 -574 -88 -740 -171 -154 -77 -250 -166 -308
-282 l-32 -66 0 -1555 0 -1555 32 -66 c97 -197 327 -331 693 -403 226 -45 313
-51 710 -51 390 0 500 8 720 53 85 17 85 17 165 -6 154 -44 245 -55 440 -49
113 3 208 11 254 22 562 126 991 554 1116 1116 22 99 31 391 16 501 -25 176
-90 362 -181 521 -209 366 -589 631 -1005 700 l-80 13 -5 380 -5 379 -32 66
c-112 228 -390 366 -873 435 -85 12 -208 17 -475 19 -198 1 -382 1 -410 -1z
m600 -329 c284 -10 540 -61 701 -140 221 -108 221 -222 0 -330 -227 -112 -626
-162 -1138 -143 -331 12 -582 59 -754 143 -221 107 -221 223 0 330 111 54 237
89 421 116 137 20 455 38 565 32 30 -1 123 -5 205 -8z m-1204 -823 c107 -38
277 -76 439 -99 161 -22 833 -26 1000 -5 234 30 479 91 592 148 l48 24 0 -95
c0 -68 -4 -97 -12 -99 -7 -2 -53 -11 -103 -20 -271 -48 -541 -191 -740 -391
-55 -55 -118 -126 -140 -157 -48 -68 -42 -66 -318 -56 -498 18 -875 136 -917
286 -5 21 -10 148 -10 285 l0 247 38 -19 c20 -10 76 -32 123 -49z m2359 -456
c41 -3 117 -17 168 -31 380 -102 682 -405 790 -792 25 -90 27 -112 27 -283 0
-171 -2 -193 -27 -283 -108 -387 -412 -691 -791 -792 -592 -158 -1198 194
-1365 792 -25 90 -27 112 -27 283 0 171 2 193 27 283 109 389 411 691 795 793
91 25 246 44 303 38 14 -2 59 -5 100 -8z m-2359 -504 c183 -64 441 -107 718
-119 l158 -6 -23 -74 c-38 -122 -54 -245 -54 -406 l0 -150 -117 7 c-155 9
-365 40 -483 71 -191 50 -337 144 -354 227 -3 17 -6 140 -6 274 l0 244 38 -19
c20 -10 76 -32 123 -49z m0 -960 c183 -64 441 -107 719 -119 l158 -6 17 -46
c58 -155 182 -345 315 -482 l85 -88 -42 -6 c-68 -10 -529 -7 -653 5 -421 39
-713 148 -750 278 -5 21 -10 148 -10 285 l0 247 38 -19 c20 -10 76 -32 123
-49z"/>
<path d="M2717 2402 c-70 -70 -77 -81 -77 -117 0 -38 7 -47 162 -202 l163
-163 -163 -163 c-155 -156 -162 -164 -162 -202 0 -37 7 -47 78 -118 70 -70 81
-77 117 -77 38 0 47 7 202 162 l163 163 163 -163 c156 -155 164 -162 202 -162
37 0 47 7 118 78 70 70 77 81 77 117 0 38 -7 47 -162 202 l-163 163 163 163
c155 156 162 164 162 202 0 37 -7 47 -78 118 -70 70 -81 77 -117 77 -38 0 -47
-7 -202 -162 l-163 -163 -163 163 c-156 155 -164 162 -202 162 -37 0 -47 -7
-118 -78z"/>
</g>
</svg>
