<?xml version="1.0" standalone="no"?>
<!DOCTYPE svg PUBLIC "-//W3C//DTD SVG 20010904//EN"
 "http://www.w3.org/TR/2001/REC-SVG-20010904/DTD/svg10.dtd">
<svg version="1.0" xmlns="http://www.w3.org/2000/svg"
 width="512.000000pt" height="512.000000pt" viewBox="0 0 512.000000 512.000000"
 preserveAspectRatio="xMidYMid meet">

<g transform="translate(0.000000,512.000000) scale(0.100000,-0.100000)"
fill="#000000" stroke="none">
<path d="M2370 5114 c-19 -2 -78 -9 -130 -15 -220 -25 -475 -94 -700 -191
-570 -244 -1065 -732 -1316 -1299 -263 -592 -294 -1232 -91 -1861 l31 -97 -61
-64 c-71 -74 -89 -119 -72 -182 21 -74 92 -115 177 -101 33 5 225 194 1810
1778 975 975 1780 1785 1788 1800 29 55 8 152 -41 184 -77 50 -143 37 -232
-49 l-63 -60 -135 42 c-138 44 -308 82 -450 101 -83 11 -454 21 -515 14z m406
-305 c116 -11 313 -48 403 -75 l54 -16 -165 -165 -165 -165 -79 13 c-116 20
-434 17 -559 -4 -318 -55 -621 -189 -860 -380 -77 -62 -220 -204 -284 -282
-206 -251 -341 -550 -398 -880 -21 -125 -24 -443 -4 -559 l13 -79 -165 -165
-165 -165 -16 54 c-27 91 -64 288 -75 403 -71 728 230 1468 789 1939 466 392
1079 584 1676 526z m-956 -1504 l-815 -815 -3 62 c-9 166 43 429 122 614 82
193 181 339 336 494 292 293 671 453 1080 459 l95 1 -815 -815z"/>
<path d="M4140 4621 c-54 -17 -94 -45 -180 -129 -132 -129 -140 -106 131 -378
122 -122 232 -227 244 -234 13 -7 35 -10 49 -6 37 9 187 167 216 229 83 174
-40 413 -258 503 -58 24 -150 31 -202 15z m165 -162 c89 -47 175 -161 175
-232 0 -43 -24 -88 -68 -131 l-41 -39 -88 81 c-48 44 -121 114 -161 154 l-72
74 47 46 c27 25 57 50 68 56 32 18 97 14 140 -9z"/>
<path d="M3608 4142 c-95 -96 -108 -113 -108 -143 0 -30 21 -54 233 -266 212
-212 236 -233 266 -233 30 0 47 13 143 108 88 89 108 114 108 138 0 62 -55 98
-108 70 -15 -8 -54 -42 -87 -75 l-59 -61 -53 52 -53 52 67 68 c74 75 85 111
45 150 -39 40 -75 29 -150 -45 l-68 -67 -52 53 -52 53 61 59 c33 33 67 72 75
87 28 53 -8 108 -70 108 -24 0 -49 -20 -138 -108z"/>
<path d="M4885 3809 c-31 -17 -3554 -3541 -3571 -3571 -29 -55 -8 -152 41
-184 77 -50 143 -37 232 48 l63 61 118 -36 c180 -55 218 -64 342 -86 482 -84
957 -35 1410 146 634 254 1172 793 1418 1424 225 577 241 1174 46 1772 l-28
86 61 64 c86 89 100 155 49 232 -30 46 -131 70 -181 44z m-131 -707 c47 -189
61 -309 60 -542 0 -230 -12 -339 -61 -539 -78 -325 -246 -653 -471 -921 -289
-346 -710 -611 -1152 -726 -379 -99 -826 -95 -1184 11 l-59 17 165 165 165
165 69 -11 c38 -6 130 -14 204 -17 444 -21 895 130 1245 416 103 85 261 253
337 360 171 242 281 512 329 815 17 104 17 427 0 529 l-13 79 163 163 c105
106 166 159 170 151 4 -6 18 -58 33 -115z m-648 -740 c-46 -352 -196 -654
-451 -907 -150 -150 -298 -250 -486 -330 -184 -78 -410 -125 -602 -125 l-82 0
815 815 815 815 3 -76 c2 -41 -4 -128 -12 -192z"/>
<path d="M3192 3717 c-49 -52 -41 -63 211 -315 207 -207 236 -232 265 -232 27
0 45 13 122 93 50 50 93 102 96 114 9 34 -5 62 -38 79 -40 21 -70 8 -134 -57
l-48 -49 -196 195 c-168 167 -200 195 -226 195 -19 0 -39 -9 -52 -23z"/>
<path d="M2870 3392 c-16 -17 -30 -41 -30 -53 0 -17 65 -89 233 -256 127 -129
242 -236 254 -239 31 -8 65 16 156 112 84 89 97 124 57 164 -36 36 -75 26
-141 -37 l-60 -57 -192 191 c-121 121 -202 194 -219 198 -22 6 -33 1 -58 -23z"/>
<path d="M2695 3219 c-32 -18 -195 -181 -211 -211 -8 -15 -12 -38 -9 -51 8
-29 451 -473 482 -482 12 -3 34 0 50 9 33 17 196 181 212 213 24 48 -14 103
-72 103 -23 0 -46 -16 -103 -72 l-75 -72 -51 52 -52 51 67 70 c75 78 85 111
44 149 -41 39 -71 29 -148 -45 l-70 -67 -51 52 -52 51 72 75 c57 58 72 80 72
104 0 55 -60 96 -105 71z"/>
<path d="M2317 2800 c-102 -40 -194 -138 -223 -238 -24 -83 -16 -201 20 -272
36 -72 104 -141 175 -176 51 -26 65 -29 161 -29 94 0 111 3 160 27 68 33 142
106 172 167 26 53 36 157 18 190 -16 31 -57 45 -91 31 -31 -13 -49 -48 -49
-96 0 -93 -97 -174 -210 -174 -126 0 -219 92 -220 218 0 61 20 115 58 155 30
31 92 67 117 67 25 0 65 46 65 75 0 35 -42 75 -77 75 -15 -1 -50 -9 -76 -20z"/>
<path d="M1782 2307 c-46 -49 -35 -70 121 -220 102 -100 135 -137 117 -133
-14 2 -130 24 -258 47 l-232 43 -28 -21 c-18 -13 -28 -31 -30 -53 -3 -31 10
-46 230 -267 203 -203 237 -233 264 -233 38 0 74 36 74 75 0 23 -25 54 -136
166 -76 76 -128 136 -118 134 10 -3 120 -23 243 -46 186 -34 228 -39 251 -29
32 13 55 59 47 92 -4 13 -107 123 -230 246 -206 204 -227 222 -259 222 -23 0
-42 -8 -56 -23z"/>
<path d="M1149 1677 c-21 -16 -39 -51 -39 -75 0 -25 262 -607 285 -632 25 -28
76 -26 103 3 28 30 28 53 -3 119 l-25 53 93 93 93 93 55 -25 c66 -31 79 -32
113 -5 29 23 36 73 14 102 -18 23 -611 287 -645 287 -15 0 -35 -6 -44 -13z
m295 -252 l59 -26 -49 -50 c-55 -56 -46 -60 -100 57 l-34 74 33 -14 c17 -8 59
-26 91 -41z"/>
<path d="M825 1286 c-141 -45 -235 -148 -265 -290 -25 -121 12 -240 104 -332
92 -92 211 -129 332 -104 162 34 278 156 291 308 4 48 2 61 -17 85 -42 53
-130 25 -130 -42 0 -63 -14 -96 -60 -142 -160 -160 -423 -9 -370 213 17 69 84
138 158 162 56 19 72 38 72 84 0 53 -50 78 -115 58z"/>
</g>
</svg>
