<?xml version="1.0" standalone="no"?>
<!DOCTYPE svg PUBLIC "-//W3C//DTD SVG 20010904//EN"
 "http://www.w3.org/TR/2001/REC-SVG-20010904/DTD/svg10.dtd">
<svg version="1.0" xmlns="http://www.w3.org/2000/svg"
 width="512.000000pt" height="512.000000pt" viewBox="0 0 512.000000 512.000000"
 preserveAspectRatio="xMidYMid meet">

<g transform="translate(0.000000,512.000000) scale(0.100000,-0.100000)"
fill="#000000" stroke="none">
<path d="M2358 4920 c-480 -44 -931 -225 -1307 -528 -404 -324 -704 -800 -825
-1308 -258 -1085 272 -2216 1268 -2704 236 -115 462 -187 716 -227 162 -25
538 -25 700 0 535 85 1022 337 1384 718 558 587 782 1397 605 2192 -55 248
-193 571 -337 787 -387 580 -985 956 -1677 1056 -127 18 -401 25 -527 14z
m382 -321 c380 -34 724 -163 1044 -390 106 -76 302 -262 388 -368 513 -636
611 -1498 254 -2227 -300 -610 -859 -1025 -1536 -1139 -153 -26 -420 -31 -580
-10 -709 90 -1313 521 -1620 1157 -351 727 -253 1584 253 2213 86 107 283 296
385 368 424 304 916 442 1412 396z"/>
<path d="M3716 3465 c-31 -11 -205 -179 -801 -775 -418 -418 -767 -760 -775
-760 -8 0 -172 157 -365 349 -378 378 -372 373 -462 356 -49 -9 -109 -69 -118
-118 -17 -91 -32 -74 468 -575 310 -310 468 -462 480 -460 9 2 407 390 884
863 672 667 871 870 886 904 24 55 18 108 -18 160 -41 60 -111 82 -179 56z"/>
</g>
</svg>
