<?xml version="1.0" standalone="no"?>
<!DOCTYPE svg PUBLIC "-//W3C//DTD SVG 20010904//EN"
 "http://www.w3.org/TR/2001/REC-SVG-20010904/DTD/svg10.dtd">
<svg version="1.0" xmlns="http://www.w3.org/2000/svg"
 width="512.000000pt" height="512.000000pt" viewBox="0 0 512.000000 512.000000"
 preserveAspectRatio="xMidYMid meet">
<metadata>
Created by potrace 1.16, written by Peter Selinger 2001-2019
</metadata>
<g transform="translate(0.000000,512.000000) scale(0.100000,-0.100000)"
fill="#000000" stroke="none">
<path d="M1145 5103 c-28 -10 -70 -30 -95 -45 -25 -15 -269 -251 -543 -525
l-497 -498 155 -155 155 -155 370 370 370 370 0 -2233 0 -2232 220 0 220 0 0
2232 0 2233 370 -370 370 -370 155 155 155 155 -502 503 c-471 471 -508 505
-577 540 -69 34 -82 37 -175 40 -77 2 -113 -2 -151 -15z"/>
<path d="M3200 4905 l0 -215 494 -2 494 -3 -494 -592 -494 -593 0 -260 0 -260
750 0 750 0 0 220 0 220 -495 2 -496 3 496 595 495 594 0 253 0 253 -750 0
-750 0 0 -215z"/>
<path d="M3835 2131 c-85 -14 -137 -31 -220 -71 -197 -96 -340 -271 -395 -485
-19 -75 -20 -110 -20 -827 l0 -748 215 0 215 0 0 320 0 320 315 0 315 0 0
-320 0 -320 220 0 221 0 -3 758 c-4 854 1 798 -85 972 -39 80 -61 109 -137
186 -77 76 -106 98 -186 137 -52 26 -122 54 -155 62 -72 19 -231 27 -300 16z
m222 -453 c77 -29 152 -104 181 -181 20 -51 22 -78 22 -242 l0 -185 -316 0
-316 0 4 194 3 193 35 69 c75 147 233 210 387 152z"/>
</g>
</svg>
