<?xml version="1.0" standalone="no"?>
<!DOCTYPE svg PUBLIC "-//W3C//DTD SVG 20010904//EN"
 "http://www.w3.org/TR/2001/REC-SVG-20010904/DTD/svg10.dtd">
<svg version="1.0" xmlns="http://www.w3.org/2000/svg"
 width="256.000000pt" height="256.000000pt" viewBox="0 0 256.000000 256.000000"
 preserveAspectRatio="xMidYMid meet">
<metadata>
Created by potrace 1.16, written by Peter Selinger 2001-2019
</metadata>
<g transform="translate(0.000000,256.000000) scale(0.100000,-0.100000)"
fill="#000000" stroke="none">
<path d="M530 1448 l0 -1113 -185 185 -185 185 -80 -80 -80 -80 252 -253 c139
-139 270 -262 290 -273 50 -26 146 -26 196 0 20 11 151 134 290 273 l252 253
-80 80 -80 80 -185 -185 -185 -185 0 1113 0 1112 -110 0 -110 0 0 -1112z"/>
<path d="M1843 2542 c-97 -35 -186 -122 -224 -222 -18 -46 -19 -80 -19 -440
l0 -390 110 0 110 0 0 160 0 160 155 0 155 0 0 -160 0 -160 110 0 111 0 -3
398 -3 397 -27 57 c-35 76 -95 138 -170 179 -57 30 -72 34 -158 36 -73 3 -107
-1 -147 -15z m207 -224 c64 -44 75 -68 78 -184 l4 -104 -156 0 -156 0 0 96 c0
79 4 103 21 134 42 75 143 103 209 58z"/>
<path d="M1600 960 l0 -110 245 0 245 0 -245 -294 -245 -294 0 -131 0 -131
375 0 375 0 0 110 0 110 -245 0 -245 0 245 294 245 294 0 131 0 131 -375 0
-375 0 0 -110z"/>
</g>
</svg>
