<?xml version="1.0" standalone="no"?>
<!DOCTYPE svg PUBLIC "-//W3C//DTD SVG 20010904//EN"
 "http://www.w3.org/TR/2001/REC-SVG-20010904/DTD/svg10.dtd">
<svg version="1.0" xmlns="http://www.w3.org/2000/svg"
 width="512.000000pt" height="512.000000pt" viewBox="0 0 512.000000 512.000000"
 preserveAspectRatio="xMidYMid meet">

<g transform="translate(0.000000,512.000000) scale(0.100000,-0.100000)"
fill="#000000" stroke="none">
<path d="M1958 5059 c-518 -43 -1000 -273 -1362 -649 -741 -772 -795 -1960
-128 -2804 30 -39 105 -121 166 -181 338 -337 774 -546 1256 -605 123 -15 398
-12 519 5 57 8 105 14 106 12 2 -1 15 -27 30 -57 118 -235 344 -454 600 -582
403 -202 889 -190 1280 32 141 81 174 132 120 185 -32 33 -60 31 -115 -6 -25
-16 -83 -50 -130 -73 -388 -197 -846 -171 -1215 68 -119 77 -291 251 -363 369
-303 490 -231 1110 175 1512 101 100 186 160 318 225 404 200 875 163 1242
-96 87 -62 225 -200 286 -285 222 -314 284 -722 166 -1089 -41 -126 -140 -303
-219 -394 -42 -47 -51 -76 -35 -114 15 -34 48 -48 89 -38 37 9 162 179 229
313 154 304 186 664 92 999 -35 120 -140 330 -219 435 -129 171 -323 329 -509
415 l-85 39 5 170 c16 517 -142 993 -465 1403 -92 116 -135 155 -173 155 -21
0 -38 -7 -51 -22 -34 -43 -24 -72 58 -167 144 -168 276 -388 353 -588 88 -230
124 -429 125 -693 1 -105 -2 -194 -6 -198 -4 -4 -44 0 -90 9 -46 8 -115 18
-154 22 l-71 6 -6 187 c-4 135 -11 213 -27 286 -144 676 -673 1185 -1350 1302
-64 11 -153 17 -270 17 -117 0 -206 -6 -270 -17 -683 -118 -1209 -630 -1352
-1315 -30 -146 -33 -456 -4 -607 25 -137 63 -256 88 -277 28 -25 70 -22 96 5
28 30 28 48 -2 151 -71 243 -75 531 -11 782 195 770 974 1261 1749 1103 144
-29 233 -60 381 -134 414 -206 703 -586 801 -1055 13 -62 18 -132 19 -259 l0
-175 -100 -17 c-410 -73 -756 -315 -963 -674 -90 -157 -156 -367 -169 -537 -3
-47 -9 -91 -12 -97 -3 -5 -61 -15 -129 -21 -334 -31 -681 63 -976 263 -127 85
-303 264 -396 402 -71 104 -77 110 -112 113 -27 2 -43 -3 -57 -17 -36 -36 -27
-71 48 -183 342 -509 932 -786 1547 -725 l82 8 7 -53 c3 -29 18 -100 31 -156
14 -57 24 -105 22 -107 -11 -11 -183 -25 -311 -25 -167 0 -269 10 -422 42
-354 72 -712 266 -975 528 -704 700 -787 1795 -197 2587 568 762 1591 1015
2445 603 119 -57 248 -136 341 -206 26 -20 55 -34 72 -34 39 0 69 32 69 74 0
41 -31 71 -171 163 -307 201 -630 311 -1004 343 -134 11 -195 11 -337 -1z"/>
<path d="M2080 4260 c-17 -17 -20 -33 -20 -105 0 -72 3 -88 20 -105 25 -25 71
-26 99 -2 41 33 41 172 0 213 -25 25 -74 24 -99 -1z"/>
<path d="M1186 3889 c-44 -35 -36 -73 31 -141 47 -47 63 -58 90 -58 42 0 73
30 73 72 0 25 -12 43 -58 90 -65 64 -92 72 -136 37z"/>
<path d="M2938 3852 c-46 -47 -58 -65 -58 -90 0 -43 31 -72 76 -72 29 0 44 9
90 54 63 63 72 106 31 144 -40 38 -73 29 -139 -36z"/>
<path d="M2082 3670 c-22 -20 -22 -26 -22 -300 0 -154 -4 -280 -8 -280 -4 0
-37 30 -72 66 -36 36 -76 70 -89 75 -46 18 -101 -24 -101 -78 0 -22 275 -298
311 -314 40 -16 84 3 98 43 15 43 15 714 0 757 -19 53 -77 68 -117 31z"/>
<path d="M810 2990 c-30 -30 -27 -83 6 -109 22 -17 41 -21 101 -21 65 0 77 3
98 25 30 30 32 64 4 99 -19 24 -26 26 -105 26 -71 0 -87 -3 -104 -20z"/>
<path d="M3245 2985 c-14 -13 -25 -36 -25 -50 0 -14 11 -37 25 -50 21 -22 33
-25 94 -25 39 0 81 5 95 11 49 23 53 104 7 128 -11 6 -54 11 -96 11 -67 0 -79
-3 -100 -25z"/>
<path d="M3653 2359 c-48 -23 -89 -67 -110 -116 -10 -26 -13 -136 -13 -533 0
-490 0 -501 21 -546 35 -73 118 -124 204 -124 81 0 157 47 198 124 22 40 22
48 25 516 2 324 0 491 -8 526 -13 63 -67 129 -124 155 -56 26 -140 25 -193 -2z
m153 -150 c18 -20 19 -43 19 -501 l0 -480 -24 -19 c-31 -25 -69 -24 -98 3
l-23 21 0 479 c0 465 1 479 20 498 27 27 81 26 106 -1z"/>
<path d="M1265 2172 c-16 -11 -47 -38 -67 -60 -58 -64 -50 -125 20 -147 29 -8
80 22 127 78 42 49 46 87 10 122 -29 30 -50 31 -90 7z"/>
<path d="M2140 1813 c-43 -16 -50 -34 -50 -123 0 -78 2 -89 23 -108 44 -41
107 -19 123 43 12 48 -1 144 -22 164 -22 22 -53 32 -74 24z"/>
<path d="M3653 979 c-91 -45 -123 -109 -123 -249 0 -115 20 -174 74 -215 123
-94 281 -63 347 68 27 51 36 175 20 245 -15 62 -69 128 -125 153 -56 26 -140
25 -193 -2z m153 -150 c15 -17 19 -36 19 -101 0 -72 -2 -82 -24 -99 -31 -25
-69 -24 -98 3 -20 19 -23 31 -23 100 0 65 3 81 20 98 27 27 81 26 106 -1z"/>
</g>
</svg>
